<?xml version="1.0" encoding="iso-8859-1"?>
<!-- Generator: Adobe Illustrator 19.0.0, SVG Export Plug-In . SVG Version: 6.00 Build 0)  -->
<svg version="1.1" id="Capa_1" xmlns="http://www.w3.org/2000/svg" xmlns:xlink="http://www.w3.org/1999/xlink" x="0px" y="0px"
	 viewBox="0 0 512.002 512.002" style="enable-background:new 0 0 512.002 512.002;" xml:space="preserve">
<g>
	<g>
		<g>
			<path d="M432,33.468H80c-44.112,0-80,35.888-80,80v216c0,44.112,35.888,80,80,80h123c11.046,0,20-8.954,20-20
				c0-11.046-8.954-20-20-20H80c-22.056,0-40-17.944-40-40V179.589h432v49c0,11.045,8.954,20,20,20c11.046,0,20-8.955,20-20V113.468
				C512,69.355,476.112,33.468,432,33.468z M472,139.589H40v-26.122c0-22.056,17.944-40,40-40h352c22.056,0,40,17.944,40,40V139.589
				z"/>
			<path d="M503.642,292.273c-8.982-6.43-21.475-4.362-27.904,4.62l-98.581,137.7c-2.692,3.122-6.066,3.796-7.874,3.916
				c-1.86,0.13-5.472-0.114-8.571-3.063l-63.82-61.281c-7.969-7.652-20.631-7.393-28.278,0.574
				c-7.651,7.967-7.394,20.628,0.573,28.278l63.884,61.341c9.568,9.108,22.339,14.175,35.479,14.175
				c1.129,0,2.261-0.037,3.393-0.113c14.314-0.954,27.679-7.915,36.666-19.097c0.233-0.29,0.456-0.585,0.673-0.887l98.981-138.26
				C514.692,311.194,512.624,298.701,503.642,292.273z"/>
		</g>
	</g>
</g>
<g>
</g>
<g>
</g>
<g>
</g>
<g>
</g>
<g>
</g>
<g>
</g>
<g>
</g>
<g>
</g>
<g>
</g>
<g>
</g>
<g>
</g>
<g>
</g>
<g>
</g>
<g>
</g>
<g>
</g>
</svg>
